# xmcd
#
# Track frame offsets: 
#        150
#        17244
#        33461
#        51431
#        67630
#        84702
#        96695
#        119899
#        143468
#        167454
#        181614
#        198849
#
# Disc length: 2970 seconds
#
# Revision: 0
# Processed by: cddbd v1.5.2PL0 Copyright (c) Steve Scherf et al.
# Submitted via: ExactAudioCopy v0.95b4
#
DISCID=9f0b980c
DTITLE=Fowler, Bernard - Friends With Privileges
DYEAR=2007
DGENRE=Bluesrock
TTITLE0=Get Away
TTITLE1=Pop That Thing
TTITLE2=Cinnamon Girl
TTITLE3=Your Future
TTITLE4=I Go To Pieces
TTITLE5=Broken Man
TTITLE6=Trance
TTITLE7=New York Time
TTITLE8=Wild Horses
TTITLE9=Small
TTITLE10=You Know What I Mean
TTITLE11=Never Met A Girl
EXTD=
EXTT0=
EXTT1=
EXTT2=
EXTT3=
EXTT4=
EXTT5=
EXTT6=
EXTT7=
EXTT8=
EXTT9=
EXTT10=
EXTT11=
PLAYORDER=
